<svg id="Capa_1" enable-background="new 0 0 512 512" height="512" viewBox="0 0 512 512" width="512" xmlns="http://www.w3.org/2000/svg"><g><g><path d="m391.277 504h-270.554v-18.079c0-11.046 8.954-20 20-20h230.555c11.046 0 20 8.954 20 20v18.079z" fill="#5a5a5a"/><path d="m120.723 486h270.555v18h-270.555z" fill="#4c4c4c"/><path d="m324.145 333.081h-136.29c-15.239 0-28.131 11.264-30.177 26.364l-14.428 106.476h225.5l-14.428-106.476c-2.046-15.1-14.939-26.364-30.177-26.364z" fill="#e0e0e0"/><path d="m145.689 447.921-2.438 18h225.499l-2.44-18z" fill="#cecece"/><path d="m186.03 222.434c-85.997-12.044-109.55-80.397-115.809-122.695-.286-1.929.596-3.288 1.147-3.927.562-.651 1.805-1.744 3.809-1.744h40.498c-2.137-11.464-3.448-21.763-4.251-30h-36.247c-10.194 0-19.861 4.427-26.521 12.146-6.642 7.696-9.599 17.872-8.112 27.918 3.713 25.089 13.413 61.506 38.54 92.52 30.952 38.205 76.167 57.593 134.388 57.63-7.452-13.854-17.106-22.867-27.442-31.848z" fill="#ffe27a"/><path d="m325.97 222.434c85.997-12.044 109.55-80.397 115.809-122.695.286-1.929-.596-3.288-1.147-3.927-.561-.651-1.805-1.744-3.809-1.744h-40.498c2.137-11.464 3.448-21.763 4.251-30h36.247c10.194 0 19.861 4.427 26.521 12.146 6.642 7.696 9.599 17.872 8.112 27.918-3.713 25.089-13.413 61.506-38.54 92.52-30.952 38.205-76.167 57.593-134.388 57.63 7.452-13.854 17.106-22.867 27.442-31.848z" fill="#ffe27a"/><path d="m401.845 44s-.766 93.715-48.023 151.489c-31.873 38.966-69.976 38.065-69.976 137.592h-55.694c0-99.527-38.103-98.626-69.976-137.592-47.256-57.774-48.021-151.489-48.021-151.489z" fill="#ffba57"/><path d="m400.771 62c1.016-11.14 1.074-18 1.074-18h-291.691s.058 6.86 1.074 18z" fill="#ffac3e"/><g fill="#f9cf58"><path d="m396.325 94.068h19.555c1.953-12.271 2.946-22.714 3.448-30h-18.752c-.803 8.237-2.114 18.537-4.251 30z"/><path d="m365.887 211.251c-11.531 5.176-24.749 9.058-39.917 11.183-10.336 8.981-19.99 17.994-27.441 31.847 8.439-.006 16.596-.43 24.484-1.247 12.127-16.478 27.873-25.8 42.874-41.783z"/></g><g fill="#f9cf58"><path d="m92.671 64.068c.503 7.286 1.496 17.729 3.449 30h19.555c-2.137-11.464-3.448-21.763-4.251-30z"/><path d="m186.03 222.434c-15.168-2.124-28.386-6.007-39.917-11.183 15.001 15.983 30.747 25.305 42.874 41.783 7.888.817 16.045 1.242 24.484 1.247-7.451-13.853-17.105-22.866-27.441-31.847z"/></g><path d="m227.689 315.081c.304 5.611.464 11.594.464 18h55.694c0-6.406.16-12.389.464-18z" fill="#ffac3e"/><path d="m409.586 44h-307.172c-9.941 0-18-8.059-18-18 0-9.941 8.059-18 18-18h307.172c9.941 0 18 8.059 18 18 0 9.941-8.059 18-18 18z" fill="#ffe27a"/><path d="m409.586 26h-307.172c-6.659 0-12.459-3.625-15.572-9-1.535 2.65-2.428 5.718-2.428 9 0 9.941 8.059 18 18 18h307.172c9.941 0 18-8.059 18-18 0-3.282-.893-6.35-2.428-9-3.113 5.375-8.913 9-15.572 9z" fill="#f9cf58"/></g><path d="m469.44 70.953c-8.102-9.389-19.861-14.775-32.263-14.775h-28.102c.132-1.886.232-3.578.31-5.078h.501c14.088 0 25.55-11.462 25.55-25.55s-11.461-25.55-25.549-25.55h-307.774c-14.088 0-25.55 11.462-25.55 25.55s11.462 25.55 25.55 25.55h.501c.078 1.5.178 3.193.31 5.078h-28.101c-12.402 0-24.162 5.385-32.262 14.774-8.084 9.368-11.682 21.753-9.873 33.982 3.314 22.392 11.576 55.395 32.117 85.46 2.269 3.127 6.629 4.409 10.444 1.965 3.427-2.342 4.306-7.017 1.965-10.444-18.928-27.703-26.576-58.349-29.659-79.18-1.169-7.902 1.158-15.907 6.384-21.964 5.244-6.077 12.856-9.564 20.884-9.564h29.504c.532 4.603 1.207 9.646 2.065 15.029h-31.569c-3.656 0-7.121 1.587-9.503 4.349-2.371 2.746-3.427 6.372-2.896 9.947 6.275 42.41 30.258 115.196 120.176 128.935 6.041 5.297 11.678 10.572 16.661 16.873-42.835-2.554-77.678-16.793-103.713-42.432-2.958-2.912-7.715-2.877-10.627.081-2.912 2.957-2.876 7.715.081 10.627 30.844 30.374 72.487 46.217 123.825 47.13 6.763 14.279 11.073 33.822 11.68 63.97h-32.785c-18.939 0-35.139 14.153-37.683 32.922l-13.614 100.482c-13.269 1.975-23.481 13.442-23.481 27.251v18.115c0 4.151 3.364 7.515 7.515 7.515h271.084c4.151 0 7.515-3.364 7.515-7.515v-18.115c0-13.809-10.213-25.276-23.481-27.251l-13.614-100.482c-2.544-18.768-18.744-32.921-37.683-32.921h-32.785c.608-30.152 4.919-49.696 11.683-63.976 58.521-1.036 104.238-21.363 135.926-60.476 26.246-32.394 36.353-70.266 40.21-96.332 1.807-12.228-1.791-24.613-9.874-33.98zm-66.563 30.313h31.376c-3.057 18.668-10.088 44.434-26.239 66.573-13.952 19.127-32.588 32.725-55.595 40.637 2.481-2.587 4.956-5.345 7.413-8.349 24.202-29.588 36.646-67.662 43.045-98.861zm-298.891 66.573c-16.151-22.14-23.182-47.903-26.239-66.573h31.376c6.398 31.199 18.842 69.273 43.045 98.863 2.457 3.003 4.931 5.76 7.412 8.348-23.006-7.913-41.642-21.51-55.594-40.638zm243.083 192.818 13.3 98.16h-116.38c-4.151 0-7.515 3.364-7.515 7.515s3.364 7.515 7.515 7.515h127.515c6.906 0 12.525 5.618 12.525 12.524v10.6h-256.056v-10.6c0-6.906 5.618-12.524 12.525-12.524h73.432c4.151 0 7.515-3.364 7.515-7.515s-3.364-7.515-7.515-7.515h-62.298l13.3-98.159c1.539-11.351 11.337-19.911 22.791-19.911h136.556c11.453 0 21.25 8.559 22.79 19.91zm-111.532-34.94c-1.463-71.703-24.034-91.184-47.886-111.765-7.949-6.859-16.17-13.952-23.848-23.339-37.462-45.8-44.711-116.436-46.096-139.514h210.28c4.151 0 7.515-3.364 7.515-7.515s-3.364-7.515-7.515-7.515h-225.874c-5.801 0-10.521-4.719-10.521-10.521s4.719-10.521 10.521-10.521h307.773c5.801 0 10.52 4.719 10.52 10.521s-4.719 10.521-10.52 10.521h-51.841c-4.151 0-7.515 3.364-7.515 7.515s3.364 7.515 7.515 7.515h36.247c-1.385 23.081-8.634 93.715-46.096 139.513-7.678 9.387-15.899 16.48-23.848 23.34-23.852 20.581-46.423 40.062-47.886 111.765zm228.908-222.982c-3.583 24.21-12.914 59.316-37.021 89.07-26.98 33.303-65.519 51.604-114.682 54.531 4.982-6.299 10.617-11.572 16.657-16.868 89.918-13.738 113.901-86.524 120.176-128.932.53-3.578-.525-7.204-2.891-9.944-2.387-2.768-5.852-4.355-9.508-4.355h-31.568c.857-5.383 1.533-10.426 2.065-15.029h29.504c8.027 0 15.64 3.486 20.884 9.565 5.227 6.055 7.554 14.06 6.384 21.962z"/></g></svg>