<?xml version="1.0" encoding="UTF-8"?>
<svg xmlns="http://www.w3.org/2000/svg" xmlns:xlink="http://www.w3.org/1999/xlink" width="24px" height="24px" viewBox="0 0 24 24" version="1.1">
<defs>
<filter id="alpha" filterUnits="objectBoundingBox" x="0%" y="0%" width="100%" height="100%">
  <feColorMatrix type="matrix" in="SourceGraphic" values="0 0 0 0 1 0 0 0 0 1 0 0 0 0 1 0 0 0 1 0"/>
</filter>
<mask id="mask0">
  <g filter="url(#alpha)">
<rect x="0" y="0" width="24" height="24" style="fill:rgb(0%,0%,0%);fill-opacity:0.960784;stroke:none;"/>
  </g>
</mask>
<clipPath id="clip1">
  <rect x="0" y="0" width="24" height="24"/>
</clipPath>
<g id="surface5" clip-path="url(#clip1)">
<path style=" stroke:none;fill-rule:evenodd;fill:rgb(85.490196%,21.960784%,5.098039%);fill-opacity:1;" d="M 14.132812 -0.0234375 C 14.226562 -0.0234375 14.320312 -0.0234375 14.414062 -0.0234375 C 15.425781 1.605469 15.339844 3.167969 14.15625 4.664062 C 13.375 5.476562 12.539062 6.21875 11.648438 6.890625 C 11.25 7.210938 10.898438 7.578125 10.59375 7.992188 C 10.410156 8.402344 10.378906 8.824219 10.5 9.257812 C 10.730469 10.46875 11.121094 11.625 11.671875 12.726562 C 11.703125 13.050781 11.570312 13.136719 11.273438 12.984375 C 10.257812 12.15625 9.453125 11.164062 8.859375 10.007812 C 8.390625 8.945312 8.46875 7.929688 9.09375 6.960938 C 9.519531 6.332031 10.027344 5.777344 10.617188 5.296875 C 11.304688 4.796875 11.992188 4.296875 12.679688 3.796875 C 13.632812 3.039062 14.101562 2.046875 14.085938 0.820312 C 14.082031 0.609375 14.066406 0.398438 14.039062 0.1875 C 14.039062 0.101562 14.070312 0.03125 14.132812 -0.0234375 Z M 14.132812 -0.0234375 "/>
</g>
<mask id="mask1">
  <g filter="url(#alpha)">
<rect x="0" y="0" width="24" height="24" style="fill:rgb(0%,0%,0%);fill-opacity:0.956863;stroke:none;"/>
  </g>
</mask>
<clipPath id="clip2">
  <rect x="0" y="0" width="24" height="24"/>
</clipPath>
<g id="surface8" clip-path="url(#clip2)">
<path style=" stroke:none;fill-rule:evenodd;fill:rgb(85.490196%,21.960784%,5.098039%);fill-opacity:1;" d="M 16.242188 4.945312 C 16.550781 4.863281 16.667969 4.972656 16.59375 5.273438 C 15.695312 5.953125 14.851562 6.703125 14.0625 7.523438 C 13.789062 7.84375 13.625 8.210938 13.570312 8.625 C 13.582031 8.796875 13.621094 8.960938 13.6875 9.117188 C 13.902344 9.503906 14.136719 9.878906 14.390625 10.242188 C 14.894531 11.277344 14.769531 12.230469 14.015625 13.101562 C 13.757812 13.375 13.484375 13.632812 13.195312 13.875 C 12.972656 14.007812 12.832031 13.953125 12.773438 13.710938 C 12.890625 13.433594 12.992188 13.152344 13.078125 12.867188 C 13.144531 12.605469 13.160156 12.339844 13.125 12.070312 C 12.863281 11.667969 12.582031 11.277344 12.28125 10.898438 C 11.769531 10.070312 11.613281 9.179688 11.8125 8.226562 C 12.167969 7.496094 12.691406 6.910156 13.382812 6.46875 C 14.296875 5.886719 15.25 5.378906 16.242188 4.945312 Z M 16.242188 4.945312 "/>
</g>
<mask id="mask2">
  <g filter="url(#alpha)">
<rect x="0" y="0" width="24" height="24" style="fill:rgb(0%,0%,0%);fill-opacity:0.94902;stroke:none;"/>
  </g>
</mask>
<clipPath id="clip3">
  <rect x="0" y="0" width="24" height="24"/>
</clipPath>
<g id="surface11" clip-path="url(#clip3)">
<path style=" stroke:none;fill-rule:evenodd;fill:rgb(45.098039%,63.137255%,98.431373%);fill-opacity:1;" d="M 18.726562 12.585938 C 19.921875 12.570312 20.632812 13.148438 20.859375 14.320312 C 20.964844 15.179688 20.675781 15.875 19.992188 16.40625 C 19.066406 17.085938 18.035156 17.507812 16.898438 17.671875 C 16.746094 17.578125 16.722656 17.460938 16.828125 17.320312 C 17.695312 16.765625 18.445312 16.078125 19.078125 15.257812 C 19.421875 14.78125 19.382812 14.335938 18.960938 13.921875 C 18.445312 13.613281 17.882812 13.457031 17.273438 13.453125 C 17.136719 13.375 17.097656 13.257812 17.15625 13.101562 C 17.65625 12.839844 18.179688 12.667969 18.726562 12.585938 Z M 18.726562 12.585938 "/>
</g>
<mask id="mask3">
  <g filter="url(#alpha)">
<rect x="0" y="0" width="24" height="24" style="fill:rgb(0%,0%,0%);fill-opacity:0.952941;stroke:none;"/>
  </g>
</mask>
<clipPath id="clip4">
  <rect x="0" y="0" width="24" height="24"/>
</clipPath>
<g id="surface14" clip-path="url(#clip4)">
<path style=" stroke:none;fill-rule:evenodd;fill:rgb(45.098039%,63.137255%,98.431373%);fill-opacity:1;" d="M 8.273438 12.914062 C 8.554688 12.90625 8.835938 12.914062 9.117188 12.9375 C 9.257812 13.117188 9.226562 13.257812 9.023438 13.359375 C 8.347656 13.484375 7.707031 13.703125 7.101562 14.015625 C 7.402344 14.121094 7.714844 14.183594 8.039062 14.203125 C 10.964844 14.40625 13.871094 14.265625 16.757812 13.78125 C 16.859375 13.886719 16.875 14.003906 16.804688 14.132812 C 16.171875 14.566406 15.484375 14.886719 14.742188 15.09375 C 13.152344 15.503906 11.535156 15.699219 9.890625 15.679688 C 8.664062 15.6875 7.453125 15.554688 6.257812 15.28125 C 5.816406 15.171875 5.433594 14.960938 5.109375 14.648438 C 4.847656 14.21875 4.917969 13.851562 5.320312 13.546875 C 5.570312 13.402344 5.835938 13.292969 6.117188 13.21875 C 6.835938 13.0625 7.554688 12.960938 8.273438 12.914062 Z M 8.273438 12.914062 "/>
</g>
<mask id="mask4">
  <g filter="url(#alpha)">
<rect x="0" y="0" width="24" height="24" style="fill:rgb(0%,0%,0%);fill-opacity:0.956863;stroke:none;"/>
  </g>
</mask>
<clipPath id="clip5">
  <rect x="0" y="0" width="24" height="24"/>
</clipPath>
<g id="surface17" clip-path="url(#clip5)">
<path style=" stroke:none;fill-rule:evenodd;fill:rgb(45.098039%,63.137255%,98.431373%);fill-opacity:1;" d="M 8.085938 15.679688 C 8.304688 15.714844 8.375 15.839844 8.296875 16.054688 C 8.175781 16.136719 8.058594 16.222656 7.945312 16.3125 C 8.429688 16.484375 8.929688 16.578125 9.445312 16.59375 C 11.304688 16.695312 13.140625 16.53125 14.953125 16.101562 C 15.046875 16.105469 15.132812 16.128906 15.210938 16.171875 C 15.542969 16.394531 15.863281 16.636719 16.171875 16.898438 C 16.214844 17.03125 16.175781 17.132812 16.054688 17.203125 C 14.230469 17.648438 12.378906 17.90625 10.5 17.976562 C 9.378906 17.972656 8.292969 17.777344 7.242188 17.390625 C 6.980469 17.28125 6.785156 17.101562 6.65625 16.851562 C 6.59375 16.539062 6.695312 16.300781 6.960938 16.125 C 7.324219 15.933594 7.699219 15.785156 8.085938 15.679688 Z M 8.085938 15.679688 "/>
</g>
<mask id="mask5">
  <g filter="url(#alpha)">
<rect x="0" y="0" width="24" height="24" style="fill:rgb(0%,0%,0%);fill-opacity:0.960784;stroke:none;"/>
  </g>
</mask>
<clipPath id="clip6">
  <rect x="0" y="0" width="24" height="24"/>
</clipPath>
<g id="surface20" clip-path="url(#clip6)">
<path style=" stroke:none;fill-rule:evenodd;fill:rgb(45.098039%,63.137255%,98.431373%);fill-opacity:1;" d="M 8.507812 18.210938 C 8.875 18.175781 8.984375 18.316406 8.835938 18.632812 C 8.859375 18.664062 8.890625 18.6875 8.929688 18.703125 C 10.652344 19.058594 12.371094 19.042969 14.085938 18.65625 C 14.226562 18.625 14.367188 18.625 14.507812 18.65625 C 14.898438 18.890625 15.289062 19.125 15.679688 19.359375 C 15.84375 19.476562 15.859375 19.609375 15.726562 19.757812 C 13.945312 20.464844 12.101562 20.707031 10.195312 20.484375 C 9.339844 20.441406 8.527344 20.238281 7.757812 19.875 C 7.324219 19.558594 7.222656 19.160156 7.453125 18.679688 C 7.757812 18.410156 8.109375 18.253906 8.507812 18.210938 Z M 8.507812 18.210938 "/>
</g>
<mask id="mask6">
  <g filter="url(#alpha)">
<rect x="0" y="0" width="24" height="24" style="fill:rgb(0%,0%,0%);fill-opacity:0.952941;stroke:none;"/>
  </g>
</mask>
<clipPath id="clip7">
  <rect x="0" y="0" width="24" height="24"/>
</clipPath>
<g id="surface23" clip-path="url(#clip7)">
<path style=" stroke:none;fill-rule:evenodd;fill:rgb(45.098039%,63.137255%,98.431373%);fill-opacity:1;" d="M 6.539062 19.898438 C 6.886719 19.84375 7.011719 19.976562 6.914062 20.296875 C 6.539062 20.390625 6.164062 20.484375 5.789062 20.578125 C 5.472656 20.65625 5.175781 20.78125 4.898438 20.953125 C 5.457031 21.164062 6.035156 21.304688 6.632812 21.375 C 10.339844 21.851562 14.027344 21.726562 17.695312 21 C 18.160156 20.921875 18.597656 20.773438 19.007812 20.554688 C 19.054688 20.457031 19.039062 20.363281 18.960938 20.273438 C 18.984375 20.136719 19.0625 20.058594 19.195312 20.039062 C 19.683594 20.265625 19.816406 20.625 19.59375 21.117188 C 19.316406 21.417969 18.980469 21.628906 18.585938 21.75 C 17.183594 22.21875 15.746094 22.515625 14.273438 22.640625 C 11.460938 22.871094 8.648438 22.855469 5.835938 22.59375 C 4.988281 22.527344 4.191406 22.292969 3.445312 21.890625 C 3.078125 21.597656 2.976562 21.230469 3.140625 20.789062 C 3.332031 20.589844 3.558594 20.441406 3.820312 20.34375 C 4.21875 20.214844 4.625 20.121094 5.039062 20.0625 C 5.546875 20.011719 6.046875 19.957031 6.539062 19.898438 Z M 6.539062 19.898438 "/>
</g>
<mask id="mask7">
  <g filter="url(#alpha)">
<rect x="0" y="0" width="24" height="24" style="fill:rgb(0%,0%,0%);fill-opacity:0.937255;stroke:none;"/>
  </g>
</mask>
<clipPath id="clip8">
  <rect x="0" y="0" width="24" height="24"/>
</clipPath>
<g id="surface26" clip-path="url(#clip8)">
<path style=" stroke:none;fill-rule:evenodd;fill:rgb(45.098039%,63.137255%,98.431373%);fill-opacity:1;" d="M 14.320312 23.976562 C 13.242188 23.976562 12.164062 23.976562 11.085938 23.976562 C 9.660156 23.878906 8.238281 23.699219 6.820312 23.4375 C 6.539062 23.4375 6.4375 23.304688 6.515625 23.039062 C 6.550781 23.007812 6.589844 22.984375 6.632812 22.96875 C 9.179688 23.035156 11.726562 23.050781 14.273438 23.015625 C 16.144531 23.058594 17.925781 22.683594 19.617188 21.890625 C 19.898438 21.691406 20.1875 21.511719 20.484375 21.351562 C 20.617188 21.367188 20.6875 21.445312 20.695312 21.585938 C 20.566406 22.035156 20.316406 22.402344 19.945312 22.6875 C 19.179688 23.203125 18.335938 23.515625 17.414062 23.625 C 16.378906 23.78125 15.347656 23.898438 14.320312 23.976562 Z M 14.320312 23.976562 "/>
</g>
</defs>
<g id="surface1">
<use xlink:href="#surface5" mask="url(#mask0)"/>
<use xlink:href="#surface8" mask="url(#mask1)"/>
<use xlink:href="#surface11" mask="url(#mask2)"/>
<use xlink:href="#surface14" mask="url(#mask3)"/>
<use xlink:href="#surface17" mask="url(#mask4)"/>
<use xlink:href="#surface20" mask="url(#mask5)"/>
<use xlink:href="#surface23" mask="url(#mask6)"/>
<use xlink:href="#surface26" mask="url(#mask7)"/>
</g>
</svg>
