<?xml version="1.0" encoding="UTF-8"?>
<svg xmlns="http://www.w3.org/2000/svg" xmlns:xlink="http://www.w3.org/1999/xlink" width="24px" height="24px" viewBox="0 0 24 24" version="1.1">
<g id="surface1">
<rect x="0" y="0" width="24" height="24" style="fill:rgb(96.862745%,87.45098%,11.764706%);fill-opacity:1;stroke:none;"/>
<path style=" stroke:none;fill-rule:nonzero;fill:rgb(0%,0%,0%);fill-opacity:1;" d="M 16.121094 18.75 C 16.605469 19.539062 17.234375 20.121094 18.347656 20.121094 C 19.28125 20.121094 19.878906 19.652344 19.878906 19.007812 C 19.878906 18.234375 19.265625 17.960938 18.234375 17.511719 L 17.671875 17.269531 C 16.046875 16.574219 14.964844 15.707031 14.964844 13.871094 C 14.964844 12.179688 16.253906 10.890625 18.265625 10.890625 C 19.699219 10.890625 20.730469 11.390625 21.472656 12.695312 L 19.71875 13.824219 C 19.332031 13.132812 18.914062 12.859375 18.265625 12.859375 C 17.605469 12.859375 17.1875 13.277344 17.1875 13.824219 C 17.1875 14.5 17.605469 14.773438 18.574219 15.195312 L 19.136719 15.433594 C 21.054688 16.257812 22.136719 17.09375 22.136719 18.976562 C 22.136719 21.007812 20.539062 22.121094 18.398438 22.121094 C 16.304688 22.121094 14.953125 21.125 14.289062 19.816406 Z M 8.15625 18.945312 C 8.507812 19.574219 8.832031 20.105469 9.605469 20.105469 C 10.347656 20.105469 10.816406 19.816406 10.816406 18.6875 L 10.816406 11.019531 L 13.070312 11.019531 L 13.070312 18.71875 C 13.070312 21.054688 11.699219 22.117188 9.703125 22.117188 C 7.898438 22.117188 6.851562 21.183594 6.320312 20.058594 Z M 8.15625 18.945312 "/>
</g>
</svg>
